<svg width="600" height="600" viewBox="0 0 600 600" fill="none" xmlns="http://www.w3.org/2000/svg">
<g clip-path="url(#clip0_53_26)">
<rect width="600" height="600" fill="white"/>
<path d="M46.6548 431L150.843 159.704H189.52L300.555 431H259.657L228.012 348.834H114.571L84.7769 431H46.6548ZM124.935 319.595H216.909L188.595 244.461C179.959 221.637 173.543 202.884 169.349 188.203C165.894 205.599 161.021 222.871 154.729 240.02L124.935 319.595ZM327.759 431V159.704H429.541C450.268 159.704 466.861 162.48 479.322 168.032C491.906 173.46 501.714 181.911 508.746 193.385C515.902 204.735 519.479 216.64 519.479 229.101C519.479 240.698 516.333 251.617 510.042 261.856C503.75 272.096 494.25 280.362 481.542 286.654C497.951 291.466 510.535 299.67 519.294 311.267C528.177 322.864 532.619 336.558 532.619 352.35C532.619 365.057 529.904 376.901 524.476 387.881C519.171 398.738 512.571 407.127 504.675 413.049C496.779 418.971 486.847 423.474 474.88 426.559C463.037 429.52 448.479 431 431.207 431H327.759ZM363.66 273.7H422.324C438.239 273.7 449.651 272.652 456.56 270.554C465.689 267.84 472.536 263.337 477.101 257.045C481.789 250.753 484.133 242.857 484.133 233.357C484.133 224.351 481.974 216.455 477.656 209.67C473.338 202.761 467.17 198.073 459.15 195.605C451.131 193.015 437.375 191.719 417.882 191.719H363.66V273.7ZM363.66 398.985H431.207C442.804 398.985 450.946 398.553 455.634 397.689C463.9 396.209 470.809 393.742 476.361 390.287C481.913 386.833 486.477 381.836 490.055 375.297C493.633 368.635 495.422 360.986 495.422 352.35C495.422 342.234 492.831 333.474 487.649 326.072C482.468 318.546 475.25 313.303 465.998 310.342C456.868 307.257 443.667 305.715 426.395 305.715H363.66V398.985Z" fill="black"/>
</g>
<defs>
<clipPath id="clip0_53_26">
<rect width="600" height="600" fill="white"/>
</clipPath>
</defs>
</svg>
